<?xml version="1.0" encoding="UTF-8" standalone="no"?>
<!-- Created with Inkscape (http://www.inkscape.org/) -->
<svg xmlns:dc="http://purl.org/dc/elements/1.1/" xmlns:cc="http://creativecommons.org/ns#" xmlns:rdf="http://www.w3.org/1999/02/22-rdf-syntax-ns#" xmlns:svg="http://www.w3.org/2000/svg" xmlns="http://www.w3.org/2000/svg" xmlns:sodipodi="http://sodipodi.sourceforge.net/DTD/sodipodi-0.dtd" xmlns:inkscape="http://www.inkscape.org/namespaces/inkscape" width="440" height="1100" id="svg2" sodipodi:version="0.32" inkscape:version="0.46" version="1.0" sodipodi:docname="loop_subdivision_icosahedron.svg" inkscape:output_extension="org.inkscape.output.svg.inkscape" style="display:inline">
  <defs id="defs4">
    <inkscape:perspective sodipodi:type="inkscape:persp3d" inkscape:vp_x="0 : 526.18109 : 1" inkscape:vp_y="0 : 1000 : 0" inkscape:vp_z="744.09448 : 526.18109 : 1" inkscape:persp3d-origin="372.04724 : 350.78739 : 1" id="perspective10"/>
    <inkscape:perspective id="perspective2427" inkscape:persp3d-origin="372.04724 : 350.78739 : 1" inkscape:vp_z="744.09448 : 526.18109 : 1" inkscape:vp_y="0 : 1000 : 0" inkscape:vp_x="0 : 526.18109 : 1" sodipodi:type="inkscape:persp3d"/>
    <inkscape:perspective id="perspective2477" inkscape:persp3d-origin="372.04724 : 350.78739 : 1" inkscape:vp_z="744.09448 : 526.18109 : 1" inkscape:vp_y="0 : 1000 : 0" inkscape:vp_x="0 : 526.18109 : 1" sodipodi:type="inkscape:persp3d"/>
    <inkscape:perspective id="perspective2527" inkscape:persp3d-origin="372.04724 : 350.78739 : 1" inkscape:vp_z="744.09448 : 526.18109 : 1" inkscape:vp_y="0 : 1000 : 0" inkscape:vp_x="0 : 526.18109 : 1" sodipodi:type="inkscape:persp3d"/>
    <inkscape:perspective id="perspective2580" inkscape:persp3d-origin="372.04724 : 350.78739 : 1" inkscape:vp_z="744.09448 : 526.18109 : 1" inkscape:vp_y="0 : 1000 : 0" inkscape:vp_x="0 : 526.18109 : 1" sodipodi:type="inkscape:persp3d"/>
    <inkscape:perspective id="perspective2630" inkscape:persp3d-origin="372.04724 : 350.78739 : 1" inkscape:vp_z="744.09448 : 526.18109 : 1" inkscape:vp_y="0 : 1000 : 0" inkscape:vp_x="0 : 526.18109 : 1" sodipodi:type="inkscape:persp3d"/>
    <inkscape:perspective id="perspective2680" inkscape:persp3d-origin="372.04724 : 350.78739 : 1" inkscape:vp_z="744.09448 : 526.18109 : 1" inkscape:vp_y="0 : 1000 : 0" inkscape:vp_x="0 : 526.18109 : 1" sodipodi:type="inkscape:persp3d"/>
  </defs>
  <sodipodi:namedview id="base" pagecolor="#ffffff" bordercolor="#666666" borderopacity="1.0" gridtolerance="10000" guidetolerance="10" objecttolerance="10" inkscape:pageopacity="0.0" inkscape:pageshadow="2" inkscape:zoom="11.2" inkscape:cx="132.40836" inkscape:cy="220.27597" inkscape:document-units="px" inkscape:current-layer="layer4" showgrid="true" inkscape:window-width="1672" inkscape:window-height="982" inkscape:window-x="0" inkscape:window-y="0">
    <inkscape:grid type="xygrid" id="grid2533" visible="true" enabled="true"/>
  </sodipodi:namedview>
  <metadata id="metadata7">
    <rdf:RDF>
      <cc:Work rdf:about="">
        <dc:format>image/svg+xml</dc:format>
        <dc:type rdf:resource="http://purl.org/dc/dcmitype/StillImage"/>
      </cc:Work>
    </rdf:RDF>
  </metadata>
  <g inkscape:groupmode="layer" id="layer4" inkscape:label="Filling" style="display:inline">
    <path style="fill:#dddded;fill-opacity:1;fill-rule:evenodd;stroke:none;stroke-width:2;stroke-linecap:butt;stroke-linejoin:miter;stroke-miterlimit:4;stroke-dasharray:none;stroke-opacity:1" d="M 20,185 L 175,75 L 155,315 L 20,185 z" id="path3746"/>
    <path style="fill:#8989ba;fill-opacity:1;fill-rule:evenodd;stroke:none;stroke-width:2;stroke-linecap:butt;stroke-linejoin:miter;stroke-miterlimit:4;stroke-dasharray:none;stroke-opacity:1" d="M 155,315 L 375,210 L 320,380 L 155,315 z" id="path3748"/>
    <path style="fill:#b3b3ff;fill-opacity:1;fill-rule:evenodd;stroke:none;stroke-width:2;stroke-linecap:butt;stroke-linejoin:miter;stroke-miterlimit:4;stroke-dasharray:none;stroke-opacity:1" d="M 175,75 L 345,30 L 375,210 L 175,75 z" id="path3750"/>
    <path style="fill:#a7a7b6;fill-opacity:1;fill-rule:evenodd;stroke:none;stroke-width:1.5;stroke-linecap:butt;stroke-linejoin:miter;stroke-miterlimit:4;stroke-dasharray:none;stroke-opacity:1" d="M 90,635 L 135,720 L 165,680 L 90,635 z" id="path3774"/>
    <path style="fill:#b0b0ee;fill-opacity:1;fill-rule:evenodd;stroke:none;stroke-width:1.5;stroke-linecap:butt;stroke-linejoin:miter;stroke-miterlimit:4;stroke-dasharray:none;stroke-opacity:1" d="M 160,590 L 250,650 L 260,545 L 160,590 z" id="path3776"/>
    <path style="fill:#c6c6ff;fill-opacity:1;fill-rule:evenodd;stroke:none;stroke-width:1.5;stroke-linecap:butt;stroke-linejoin:miter;stroke-miterlimit:4;stroke-dasharray:none;stroke-opacity:1" d="M 180,500 L 260,545 L 250,460 L 180,500 z" id="path3780"/>
    <path style="fill:#a7a7ff;fill-opacity:1;fill-rule:evenodd;stroke:none;stroke-width:1.5;stroke-linecap:butt;stroke-linejoin:miter;stroke-miterlimit:4;stroke-dasharray:none;stroke-opacity:1" d="M 250,460 L 295,465 L 335,520 L 250,460 z" id="path3782"/>
    <path style="fill:#a6a6ff;fill-opacity:1;fill-rule:evenodd;stroke:none;stroke-width:1.5;stroke-linecap:butt;stroke-linejoin:miter;stroke-miterlimit:4;stroke-dasharray:none;stroke-opacity:1" d="M 335,520 L 330,600 L 370,600 L 335,520 z" id="path3786"/>
    <path style="fill:#9898eb;fill-opacity:1;fill-rule:evenodd;stroke:none;stroke-width:1.5;stroke-linecap:butt;stroke-linejoin:miter;stroke-miterlimit:4;stroke-dasharray:none;stroke-opacity:1" d="M 250,650 L 325,680 L 330,600 L 250,650 z" id="path3788"/>
    <path style="fill:#8686a0;fill-opacity:1;fill-rule:evenodd;stroke:none;stroke-width:1.5;stroke-linecap:butt;stroke-linejoin:miter;stroke-miterlimit:4;stroke-dasharray:none;stroke-opacity:1" d="M 165,680 L 230,725 L 250,650 L 165,680 z" id="path3790"/>
    <path style="fill:#8282a2;fill-opacity:1;fill-rule:evenodd;stroke:none;stroke-width:1.5;stroke-linecap:butt;stroke-linejoin:miter;stroke-miterlimit:4;stroke-dasharray:none;stroke-opacity:1" d="M 230,725 L 325,680 L 280,725 L 230,725 z" id="path3792"/>
    <path style="fill:#878797;fill-opacity:1;fill-rule:evenodd;stroke:none;stroke-width:1px;stroke-linecap:butt;stroke-linejoin:miter;stroke-opacity:1" d="M 140,1057 L 173,1079 L 181,1070 L 151,1045 L 140,1057 z" id="path3794"/>
    <path style="fill:#9b9bab;fill-opacity:1;fill-rule:evenodd;stroke:none;stroke-width:1px;stroke-linecap:butt;stroke-linejoin:miter;stroke-opacity:1;display:inline" d="M 105,1035 L 112,1026 L 140,1057 L 105,1035 z" id="path3796"/>
    <path style="fill:#d6d6e5;fill-opacity:1;fill-rule:evenodd;stroke:none;stroke-width:1px;stroke-linecap:butt;stroke-linejoin:miter;stroke-opacity:1" d="M 92,868 L 80,911 L 108,889 L 92,868 z" id="path3802"/>
    <path style="fill:#d0d0df;fill-opacity:1;fill-rule:evenodd;stroke:none;stroke-width:1px;stroke-linecap:butt;stroke-linejoin:miter;stroke-opacity:1" d="M 70,933 L 77,957 L 80,911 L 70,933 z" id="path3804"/>
    <path style="fill:#c6c6d6;fill-opacity:1;fill-rule:evenodd;stroke:none;stroke-width:1px;stroke-linecap:butt;stroke-linejoin:miter;stroke-opacity:1" d="M 77,957 L 101,981 L 97,935 L 77,957 z" id="path3806"/>
    <path style="fill:#dedeed;fill-opacity:1;fill-rule:evenodd;stroke:none;stroke-width:1px;stroke-linecap:butt;stroke-linejoin:miter;stroke-opacity:1" d="M 97,935 L 125,961 L 128,913 L 97,935 z" id="path3809"/>
    <path style="fill:#bbbbe5;fill-opacity:1;fill-rule:evenodd;stroke:none;stroke-width:1px;stroke-linecap:butt;stroke-linejoin:miter;stroke-opacity:1" d="M 164,940 L 209,918 L 205,967 L 164,940 z" id="path3813"/>
    <path style="fill:#ececfc;fill-opacity:1;fill-rule:evenodd;stroke:none;stroke-width:1px;stroke-linecap:butt;stroke-linejoin:miter;stroke-opacity:1" d="M 108,889 L 140,867 L 128,913 L 108,889 z" id="path3816"/>
    <path style="fill:#d9d9e9;fill-opacity:1;fill-rule:evenodd;stroke:none;stroke-width:1px;stroke-linecap:butt;stroke-linejoin:miter;stroke-opacity:1" d="M 108,889 L 140,867 L 124,846 L 108,889 z" id="path3818"/>
    <path style="fill:#c9c9de;fill-opacity:1;fill-rule:evenodd;stroke:none;stroke-width:1px;stroke-linecap:butt;stroke-linejoin:miter;stroke-opacity:1" d="M 117,835 L 151,813 L 154,818 L 124,846 L 117,835 z" id="path3820"/>
    <path style="fill:#adadbc;fill-opacity:1;fill-rule:evenodd;stroke:none;stroke-width:1px;stroke-linecap:butt;stroke-linejoin:miter;stroke-opacity:1" d="M 85,1000 L 112,1026 L 101,981 L 85,1000 z" id="path3822"/>
    <path style="fill:#c0c0d2;fill-opacity:1;fill-rule:evenodd;stroke:none;stroke-width:1px;stroke-linecap:butt;stroke-linejoin:miter;stroke-opacity:1" d="M 125,961 L 164,940 L 162,986 L 125,961 z" id="path3898"/>
    <path style="fill:#cfcfff;fill-opacity:1;fill-rule:evenodd;stroke:none;stroke-width:1px;stroke-linecap:butt;stroke-linejoin:miter;stroke-opacity:1" d="M 178,856 L 170,892 L 212,871 L 178,856 z" id="path3902"/>
    <path style="fill:#d5d5ff;fill-opacity:1;fill-rule:evenodd;stroke:none;stroke-width:1px;stroke-linecap:butt;stroke-linejoin:miter;stroke-opacity:1" d="M 140,867 L 178,856 L 164,832 L 140,867 z" id="path3904"/>
    <path style="fill:#d0d0ee;fill-opacity:1;fill-rule:evenodd;stroke:#000000;stroke-width:1px;stroke-linecap:butt;stroke-linejoin:miter;stroke-opacity:1" d="M 154,818 L 124,846 L 164,832 L 154,818 z" id="path3906"/>
    <path style="fill:#a8a8ff;fill-opacity:1;fill-rule:evenodd;stroke:none;stroke-width:1px;stroke-linecap:butt;stroke-linejoin:miter;stroke-opacity:1" d="M 358,912 L 348,910 L 325,912 L 321,874 L 310,842 L 321,844 L 340,873 L 358,912 z" id="path3908"/>
    <path style="fill:#a6a6ff;fill-opacity:1;fill-rule:evenodd;stroke:none;stroke-width:1px;stroke-linecap:butt;stroke-linejoin:miter;stroke-opacity:1" d="M 325,912 L 292,879 L 286,842 L 321,874 L 325,912 z" id="path3920"/>
    <path style="fill:#b8b8f0;fill-opacity:1;fill-rule:evenodd;stroke:none;stroke-width:1px;stroke-linecap:butt;stroke-linejoin:miter;stroke-opacity:1" d="M 212,871 L 209,918 L 251,946 L 253,896 L 212,871 z" id="path3924"/>
    <path style="fill:#ceceff;fill-opacity:1;fill-rule:evenodd;stroke:none;stroke-width:1px;stroke-linecap:butt;stroke-linejoin:miter;stroke-opacity:1" d="M 164,832 L 198,811 L 209,834 L 164,832 z" id="path3926"/>
    <path style="fill:#cbcbf8;fill-opacity:1;fill-rule:evenodd;stroke:none;stroke-width:1px;stroke-linecap:butt;stroke-linejoin:miter;stroke-opacity:1" d="M 154,818 L 190,800 L 198,811 L 154,818 z" id="path3928"/>
    <path style="fill:#c3c3ff;fill-opacity:1;fill-rule:evenodd;stroke:none;stroke-width:1px;stroke-linecap:butt;stroke-linejoin:miter;stroke-opacity:1" d="M 198,811 L 232,800 L 243,821 L 198,811 z" id="path3931" sodipodi:nodetypes="ccc"/>
    <path style="fill:#bbbbff;fill-opacity:1;fill-rule:evenodd;stroke:none;stroke-width:1px;stroke-linecap:butt;stroke-linejoin:miter;stroke-opacity:1" d="M 243,821 L 272,816 L 232,800 L 243,821 z" id="path3935"/>
    <path style="fill:#a3a3ff;fill-opacity:1;fill-rule:evenodd;stroke:none;stroke-width:1px;stroke-linecap:butt;stroke-linejoin:miter;stroke-opacity:1" d="M 321,844 L 310,842 L 272,816 L 292,822 L 321,844 z" id="path3937"/>
    <path style="fill:#a9a9ff;fill-opacity:1;fill-rule:evenodd;stroke:none;stroke-width:1px;stroke-linecap:butt;stroke-linejoin:miter;stroke-opacity:1" d="M 286,842 L 310,842 L 272,816 L 286,842 z" id="path3939"/>
    <path style="opacity:1;fill:#bcbcff;fill-opacity:1;fill-rule:evenodd;stroke:none;stroke-width:1px;stroke-linecap:butt;stroke-linejoin:miter;stroke-opacity:1;display:inline" d="M 242,821 L 251,852 L 285,842 L 242,821 z" id="path3941"/>
    <path style="fill:#c6c6ff;fill-opacity:1;fill-rule:evenodd;stroke:none;stroke-width:1px;stroke-linecap:butt;stroke-linejoin:miter;stroke-opacity:1" d="M 209,834 L 212,871 L 252,852 L 209,834 z" id="path3944"/>
    <path style="fill:#7a7a8a;fill-opacity:1;fill-rule:evenodd;stroke:none;stroke-width:1px;stroke-linecap:butt;stroke-linejoin:miter;stroke-opacity:1" d="M 181,1070 L 227,1067 L 214,1084 L 181,1070 z" id="path3946"/>
    <path style="fill:#7a7a8a;fill-opacity:1;fill-rule:evenodd;stroke:none;stroke-width:1px;stroke-linecap:butt;stroke-linejoin:miter;stroke-opacity:1" d="M 194,1049 L 240,1037 L 227,1067 L 194,1049 z" id="path3948"/>
    <path style="fill:#7d7d93;fill-opacity:1;fill-rule:evenodd;stroke:none;stroke-width:1px;stroke-linecap:butt;stroke-linejoin:miter;stroke-opacity:1" d="M 271,1051 L 257,1072 L 227,1067 L 271,1051 z" id="path3950"/>
    <path style="fill:#9292a2;fill-opacity:1;fill-rule:evenodd;stroke:none;stroke-width:1px;stroke-linecap:butt;stroke-linejoin:miter;stroke-opacity:1" d="M 151,1045 L 194,1049 L 167,1023 L 151,1045 z" id="path3952"/>
    <path style="fill:#9292a2;fill-opacity:1;fill-rule:evenodd;stroke:none;stroke-width:1px;stroke-linecap:butt;stroke-linejoin:miter;stroke-opacity:1" d="M 203,1013 L 194,1049 L 167,1023 L 203,1013 z" id="path3954"/>
    <path style="fill:#a7a7b6;fill-opacity:1;fill-rule:evenodd;stroke:none;stroke-width:1px;stroke-linecap:butt;stroke-linejoin:miter;stroke-opacity:1" d="M 112,1026 L 151,1045 L 131,1007 L 112,1026 z" id="path3956"/>
    <path style="fill:#a8a8b8;fill-opacity:1;fill-rule:evenodd;stroke:none;stroke-width:1px;stroke-linecap:butt;stroke-linejoin:miter;stroke-opacity:1" d="M 131,1007 L 162,986 L 167,1023 L 131,1007 z" id="path3960"/>
    <path style="fill:#a5a5c5;fill-opacity:1;fill-rule:evenodd;stroke:none;stroke-width:1px;stroke-linecap:butt;stroke-linejoin:miter;stroke-opacity:1" d="M 162,986 L 203,1013 L 205,967 L 162,986 z" id="path3964"/>
    <path style="fill:#a1a1e0;fill-opacity:1;fill-rule:evenodd;stroke:none;stroke-width:1px;stroke-linecap:butt;stroke-linejoin:miter;stroke-opacity:1" d="M 205,967 L 251,946 L 246,994 L 205,967 z" id="path3966"/>
    <path style="fill:#9f9fff;fill-opacity:1;fill-rule:evenodd;stroke:none;stroke-width:1px;stroke-linecap:butt;stroke-linejoin:miter;stroke-opacity:1" d="M 353,989 L 343,991 L 342,950 L 356,950 L 353,989 z" id="path3968"/>
    <path style="fill:#a4a4ff;fill-opacity:1;fill-rule:evenodd;stroke:none;stroke-width:1px;stroke-linecap:butt;stroke-linejoin:miter;stroke-opacity:1" d="M 348,910 L 358,912 L 356,949 L 348,910 z" id="path3972"/>
    <path style="fill:#a6a6ff;fill-opacity:1;fill-rule:evenodd;stroke:none;stroke-width:1px;stroke-linecap:butt;stroke-linejoin:miter;stroke-opacity:1" d="M 325,912 L 348,910 L 342,949 L 325,912 z" id="path3974"/>
    <path style="fill:#b5b5ff;fill-opacity:1;fill-rule:evenodd;stroke:none;stroke-width:1px;stroke-linecap:butt;stroke-linejoin:miter;stroke-opacity:1" d="M 252,852 L 253,896 L 292,879 L 252,852 z" id="path3976"/>
    <path style="fill:#acacff;fill-opacity:1;fill-rule:evenodd;stroke:none;stroke-width:1px;stroke-linecap:butt;stroke-linejoin:miter;stroke-opacity:1" d="M 292,879 L 253,896 L 292,924 L 292,879 z" id="path3978"/>
    <path style="fill:#a1a1ff;fill-opacity:1;fill-rule:evenodd;stroke:none;stroke-width:1px;stroke-linecap:butt;stroke-linejoin:miter;stroke-opacity:1" d="M 292,924 L 325,912 L 318,949 L 292,924 z" id="path3980"/>
    <path style="fill:#9d9df6;fill-opacity:1;fill-rule:evenodd;stroke:none;stroke-width:1px;stroke-linecap:butt;stroke-linejoin:miter;stroke-opacity:1" d="M 251,946 L 292,924 L 288,972 L 251,946 z" id="path3982"/>
    <path style="fill:#8c8cc3;fill-opacity:1;fill-rule:evenodd;stroke:none;stroke-width:1px;stroke-linecap:butt;stroke-linejoin:miter;stroke-opacity:1" d="M 271,1051 L 312,1024 L 297,1053 L 271,1051 z" id="path3984"/>
    <path style="fill:#8989ba;fill-opacity:1;fill-rule:evenodd;stroke:none;stroke-width:1px;stroke-linecap:butt;stroke-linejoin:miter;stroke-opacity:1" d="M 240,1037 L 283,1015 L 271,1051 L 240,1037 z" id="path3986"/>
    <path style="fill:#8d8dbb;fill-opacity:1;fill-rule:evenodd;stroke:none;stroke-width:1px;stroke-linecap:butt;stroke-linejoin:miter;stroke-opacity:1" d="M 203,1013 L 246,994 L 240,1037 L 203,1013 z" id="path3988"/>
    <path style="fill:#9292d9;fill-opacity:1;fill-rule:evenodd;stroke:none;stroke-width:1px;stroke-linecap:butt;stroke-linejoin:miter;stroke-opacity:1" d="M 246,994 L 288,972 L 283,1015 L 246,994 z" id="path3990"/>
    <path style="fill:#9797e8;fill-opacity:1;fill-rule:evenodd;stroke:none;stroke-width:1px;stroke-linecap:butt;stroke-linejoin:miter;stroke-opacity:1" d="M 320,987 L 312,1024 L 343,991 L 320,987 z" id="path3992"/>
    <path style="fill:#9c9cfa;fill-opacity:1;fill-rule:evenodd;stroke:none;stroke-width:1px;stroke-linecap:butt;stroke-linejoin:miter;stroke-opacity:1" d="M 288,972 L 318,949 L 320,987 L 288,972 z" id="path3994"/>
    <path style="fill:#ffffff;fill-rule:evenodd;stroke:none;stroke-width:1px;stroke-linecap:butt;stroke-linejoin:miter;stroke-opacity:1;fill-opacity:1" d="M 95,535 L 160,590 L 180,500 L 95,535 z" id="path3613"/>
    <path style="fill:#ffffff;fill-rule:evenodd;stroke:none;stroke-width:1px;stroke-linecap:butt;stroke-linejoin:miter;stroke-opacity:1;fill-opacity:1" d="M 140,867 L 128,913 L 164,940 L 170,892 L 140,867 z" id="path3615"/>
  </g>
  <g inkscape:groupmode="layer" id="layer2" inkscape:label="Surfaces" style="opacity:1;display:inline">
    <path style="fill:#a3a3ff;fill-opacity:1;fill-rule:evenodd;stroke:#000000;stroke-width:1px;stroke-linecap:butt;stroke-linejoin:miter;stroke-opacity:1" d="M 318,949 L 325,912 L 342,950" id="path3692" sodipodi:nodetypes="ccc"/>
    <path style="fill:#9f9fff;fill-opacity:1;fill-rule:evenodd;stroke:#000000;stroke-width:1px;stroke-linecap:butt;stroke-linejoin:miter;stroke-opacity:1" d="M 342,950 L 318,949 L 320,987" id="path3686" sodipodi:nodetypes="ccc"/>
    <path style="fill:#c2c2d1;fill-opacity:1;fill-rule:evenodd;stroke:#000000;stroke-width:1px;stroke-linecap:butt;stroke-linejoin:miter;stroke-opacity:1" d="M 85,1000 L 101,981 L 77,957" id="path2756" sodipodi:nodetypes="ccc"/>
    <path style="fill:#d2d2e1;fill-opacity:1;fill-rule:evenodd;stroke:#000000;stroke-width:1px;stroke-linecap:butt;stroke-linejoin:miter;stroke-opacity:1" d="M 71,967 L 70,933 L 77,957" id="path2758"/>
    <path style="fill:#e2e2f2;fill-opacity:1;fill-rule:evenodd;stroke:#000000;stroke-width:1px;stroke-linecap:butt;stroke-linejoin:miter;stroke-opacity:1" d="M 97,935 L 128,913 L 108,889" id="path3670"/>
    <path style="fill:#d7d7e6;fill-opacity:1;fill-rule:evenodd;stroke:#000000;stroke-width:1px;stroke-linecap:butt;stroke-linejoin:miter;stroke-opacity:1" d="M 80,911 L 108,889 L 97,935 L 80,911 z" id="path2768"/>
    <path style="fill:#d6d6e5;fill-opacity:1;fill-rule:evenodd;stroke:#000000;stroke-width:1px;stroke-linecap:butt;stroke-linejoin:miter;stroke-opacity:1" d="M 124,846 L 108,889 L 92,868" id="path2766"/>
    <path style="fill:#d2d2e1;fill-opacity:1;fill-rule:evenodd;stroke:#000000;stroke-width:1px;stroke-linecap:butt;stroke-linejoin:miter;stroke-opacity:1" d="M 76,897 L 92,868 L 80,911" id="path2762"/>
    <path style="fill:#7a7a8a;fill-opacity:1;fill-rule:evenodd;stroke:#000000;stroke-width:1.5;stroke-linecap:butt;stroke-linejoin:miter;stroke-miterlimit:4;stroke-dasharray:none;stroke-opacity:1" d="M 205,745 L 280,725 L 230,725" id="path2736"/>
    <path style="fill:#9898ed;fill-opacity:1;fill-rule:evenodd;stroke:#000000;stroke-width:1.5;stroke-linecap:butt;stroke-linejoin:miter;stroke-miterlimit:4;stroke-dasharray:none;stroke-opacity:1" d="M 370,600 L 345,680 L 325,680" id="path2746"/>
    <path style="fill:#9c9cf6;fill-opacity:1;fill-rule:evenodd;stroke:#000000;stroke-width:1.5;stroke-linecap:butt;stroke-linejoin:miter;stroke-miterlimit:4;stroke-dasharray:none;stroke-opacity:1" d="M 260,545 L 250,650 L 330,600" id="path2742"/>
    <path style="fill:#afafff;fill-opacity:1;fill-rule:evenodd;stroke:#000000;stroke-width:1.5;stroke-linecap:butt;stroke-linejoin:miter;stroke-miterlimit:4;stroke-dasharray:none;stroke-opacity:1" d="M 230,435 L 295,465 L 250,460" id="path2716"/>
    <path style="fill:#c5c5ff;fill-opacity:1;fill-rule:evenodd;stroke:#000000;stroke-width:1.5;stroke-linecap:butt;stroke-linejoin:miter;stroke-miterlimit:4;stroke-dasharray:none;stroke-opacity:1" d="M 250,460 L 230,435 L 155,455" id="path2714"/>
    <path style="fill:#ceceff;fill-opacity:1;fill-rule:evenodd;stroke:#000000;stroke-width:1.5;stroke-linecap:butt;stroke-linejoin:miter;stroke-miterlimit:4;stroke-dasharray:none;stroke-opacity:1" d="M 180,500 L 250,460 L 155,455" id="path2712"/>
    <path style="fill:#d3d3ef;fill-opacity:1;fill-rule:evenodd;stroke:#000000;stroke-width:1.5;stroke-linecap:butt;stroke-linejoin:miter;stroke-miterlimit:4;stroke-dasharray:none;stroke-opacity:1" d="M 95,535 L 180,500 L 155,455" id="path2710" sodipodi:nodetypes="ccc"/>
    <path style="fill:#d3d3e3;fill-opacity:1;fill-rule:evenodd;stroke:#000000;stroke-width:1.5;stroke-linecap:butt;stroke-linejoin:miter;stroke-miterlimit:4;stroke-dasharray:none;stroke-opacity:1" d="M 85,505 L 155,455 L 95,535" id="path2706"/>
    <path style="fill:#d5d5e4;fill-opacity:1;fill-rule:evenodd;stroke:#000000;stroke-width:1.5;stroke-linecap:butt;stroke-linejoin:miter;stroke-miterlimit:4;stroke-dasharray:none;stroke-opacity:1" d="M 95,535 L 85,505 L 65,580" id="path2704"/>
    <path style="fill:#a2a2ff;fill-opacity:1;fill-rule:evenodd;stroke:#000000;stroke-width:1.5;stroke-linecap:butt;stroke-linejoin:miter;stroke-miterlimit:4;stroke-dasharray:none;stroke-opacity:1" d="M 260,545 L 330,600 L 335,520" id="path2720"/>
    <path style="fill:#a8a8ff;fill-opacity:1;fill-rule:evenodd;stroke:#000000;stroke-width:1.5;stroke-linecap:butt;stroke-linejoin:miter;stroke-miterlimit:4;stroke-dasharray:none;stroke-opacity:1" d="M 335,520 L 370,600 L 360,525" id="path2750"/>
    <path style="fill:#b3b3ff;fill-opacity:1;fill-rule:evenodd;stroke:#000000;stroke-width:1.5;stroke-linecap:butt;stroke-linejoin:miter;stroke-miterlimit:4;stroke-dasharray:none;stroke-opacity:1" d="M 335,520 L 250,460 L 260,545 L 335,520 z" id="path2718" sodipodi:nodetypes="ccc"/>
    <path style="fill:#a6a6ff;fill-opacity:1;fill-rule:evenodd;stroke:#000000;stroke-width:1.5;stroke-linecap:butt;stroke-linejoin:miter;stroke-miterlimit:4;stroke-dasharray:none;stroke-opacity:1" d="M 295,465 L 360,525 L 335,520 L 295,465 z" id="path2722" sodipodi:nodetypes="ccc"/>
    <path style="fill:#c7c7ff;fill-opacity:1;fill-rule:evenodd;stroke:#000000;stroke-width:1.5;stroke-linecap:butt;stroke-linejoin:miter;stroke-miterlimit:4;stroke-dasharray:none;stroke-opacity:1" d="M 180,500 L 160,590 L 260,545 L 180,500 z" id="path2726"/>
    <path style="fill:#a6a6c7;fill-opacity:1;fill-rule:evenodd;stroke:#000000;stroke-width:1.5;stroke-linecap:butt;stroke-linejoin:miter;stroke-miterlimit:4;stroke-dasharray:none;stroke-opacity:1" d="M 165,680 L 250,650 L 160,590" id="path2738"/>
    <path style="fill:#b6b6c5;fill-opacity:1;fill-rule:evenodd;stroke:#000000;stroke-width:1.5;stroke-linecap:butt;stroke-linejoin:miter;stroke-miterlimit:4;stroke-dasharray:none;stroke-opacity:1" d="M 90,635 L 165,680 L 160,590" id="path2728"/>
    <path style="fill:#adadbd;fill-opacity:1;fill-rule:evenodd;stroke:#000000;stroke-width:1.5;stroke-linecap:butt;stroke-linejoin:miter;stroke-miterlimit:4;stroke-dasharray:none;stroke-opacity:1" d="M 75,660 L 135,720 L 90,635" id="path2730"/>
    <path style="fill:#7a7a8a;fill-opacity:1;fill-rule:evenodd;stroke:#000000;stroke-width:1.5;stroke-linecap:butt;stroke-linejoin:miter;stroke-miterlimit:4;stroke-dasharray:none;stroke-opacity:1" d="M 135,720 L 205,745 L 230,725" id="path2734" sodipodi:nodetypes="ccc"/>
    <path style="fill:#878796;fill-opacity:1;fill-rule:evenodd;stroke:#000000;stroke-width:1.5;stroke-linecap:butt;stroke-linejoin:miter;stroke-miterlimit:4;stroke-dasharray:none;stroke-opacity:1" d="M 135,720 L 165,680 L 230,725 L 135,720 z" id="path2732"/>
    <path style="fill:#dddded;fill-opacity:1;fill-rule:evenodd;stroke:#000000;stroke-width:1.5;stroke-linecap:butt;stroke-linejoin:miter;stroke-miterlimit:4;stroke-dasharray:none;stroke-opacity:1" d="M 90,635 L 160,590 L 95,535" id="path2724"/>
    <path style="fill:#d0d0df;fill-opacity:1;fill-rule:evenodd;stroke:#000000;stroke-width:1.5;stroke-linecap:butt;stroke-linejoin:miter;stroke-miterlimit:4;stroke-dasharray:none;stroke-opacity:1" d="M 90,635 L 95,535 L 65,580" id="path2702"/>
    <path style="fill:#c4c4d3;fill-opacity:1;fill-rule:evenodd;stroke:#000000;stroke-width:1.5;stroke-linecap:butt;stroke-linejoin:miter;stroke-miterlimit:4;stroke-dasharray:none;stroke-opacity:1" d="M 65,580 L 75,660 L 90,635 L 65,580 z" id="path2700"/>
    <path style="fill:#8989ba;fill-opacity:1;fill-rule:evenodd;stroke:#000000;stroke-width:1.5;stroke-linecap:butt;stroke-linejoin:miter;stroke-miterlimit:4;stroke-dasharray:none;stroke-opacity:1" d="M 250,650 L 230,725 L 325,680 L 250,650 z" id="path2740"/>
    <path style="fill:#9e9eff;fill-opacity:1;fill-rule:evenodd;stroke:#000000;stroke-width:1.5;stroke-linecap:butt;stroke-linejoin:miter;stroke-miterlimit:4;stroke-dasharray:none;stroke-opacity:1" d="M 325,680 L 330,600 L 370,600 L 325,680 z" id="path2744"/>
    <path style="fill:#8787b4;fill-opacity:1;fill-rule:evenodd;stroke:#000000;stroke-width:1.5;stroke-linecap:butt;stroke-linejoin:miter;stroke-miterlimit:4;stroke-dasharray:none;stroke-opacity:1" d="M 325,680 L 280,725 L 345,680" id="path2752"/>
    <path style="fill:#c3c3d2;fill-opacity:1;fill-rule:evenodd;stroke:#000000;stroke-width:1px;stroke-linecap:butt;stroke-linejoin:miter;stroke-opacity:1" d="M 71,967 L 85,1000 L 77,957 L 71,967 z" id="path2754"/>
    <path style="fill:#d2d2e1;fill-opacity:1;fill-rule:evenodd;stroke:#000000;stroke-width:1px;stroke-linecap:butt;stroke-linejoin:miter;stroke-opacity:1" d="M 70,933 L 76,897 L 80,911 L 70,933 z" id="path2760"/>
    <path style="fill:#d3d3e2;fill-opacity:1;fill-rule:evenodd;stroke:#000000;stroke-width:1px;stroke-linecap:butt;stroke-linejoin:miter;stroke-opacity:1" d="M 92,868 L 117,835 L 124,846 L 92,868 z" id="path2764"/>
    <path style="fill:#9191a1;fill-opacity:1;fill-rule:evenodd;stroke:#000000;stroke-width:1px;stroke-linecap:butt;stroke-linejoin:miter;stroke-opacity:1" d="M 135,1061 L 105,1035 L 140,1057" id="path3632"/>
    <path style="fill:#c4c4d3;fill-opacity:1;fill-rule:evenodd;stroke:#000000;stroke-width:1px;stroke-linecap:butt;stroke-linejoin:miter;stroke-opacity:1" d="M 101,981 L 97,935 L 125,961" id="path3668"/>
    <path style="fill:#cbcbf5;fill-opacity:1;fill-rule:evenodd;stroke:#000000;stroke-width:1px;stroke-linecap:butt;stroke-linejoin:miter;stroke-opacity:1" d="M 170,892 L 164,940 L 209,918" id="path3710"/>
    <path style="fill:#b9b9c8;fill-opacity:1;fill-rule:evenodd;stroke:#000000;stroke-width:1px;stroke-linecap:butt;stroke-linejoin:miter;stroke-opacity:1" d="M 101,981 L 112,1026 L 131,1007" id="path3730"/>
    <path style="fill:#b5b5c4;fill-opacity:1;fill-rule:evenodd;stroke:#000000;stroke-width:1px;stroke-linecap:butt;stroke-linejoin:miter;stroke-opacity:1" d="M 131,1007 L 162,986 L 125,961" id="path3728"/>
    <path style="fill:#7a7a8a;fill-opacity:1;fill-rule:evenodd;stroke:#000000;stroke-width:1px;stroke-linecap:butt;stroke-linejoin:miter;stroke-opacity:1" d="M 214,1084 L 227,1067 L 257,1072" id="path3652" sodipodi:nodetypes="ccc"/>
    <path style="fill:#7a7a8a;fill-opacity:1;fill-rule:evenodd;stroke:#000000;stroke-width:1px;stroke-linecap:butt;stroke-linejoin:miter;stroke-opacity:1" d="M 245,1083 L 214,1084 L 258,1072" id="path3624"/>
    <path style="fill:#eaeaff;fill-opacity:1;fill-rule:evenodd;stroke:#000000;stroke-width:1px;stroke-linecap:butt;stroke-linejoin:miter;stroke-opacity:1" d="M 140,867 L 178,856 L 170,892" id="path3716"/>
    <path style="fill:#c8c8ea;fill-opacity:1;fill-rule:evenodd;stroke:#000000;stroke-width:1px;stroke-linecap:butt;stroke-linejoin:miter;stroke-opacity:1" d="M 151,813 L 190,800 L 154,818" id="path3578"/>
    <path style="fill:none;fill-rule:evenodd;stroke:#000000;stroke-width:1px;stroke-linecap:butt;stroke-linejoin:miter;stroke-opacity:1" d="M 117,835 L 151,813 L 154,818 L 117,835 z" id="path3576"/>
    <path style="fill:#c4c4ff;fill-opacity:1;fill-rule:evenodd;stroke:#000000;stroke-width:1px;stroke-linecap:butt;stroke-linejoin:miter;stroke-opacity:1" d="M 190,800 L 232,800 L 198,811 L 190,800 z" id="path3580" sodipodi:nodetypes="cccc"/>
    <path style="fill:#a6a6ff;fill-opacity:1;fill-rule:evenodd;stroke:#000000;stroke-width:1px;stroke-linecap:butt;stroke-linejoin:miter;stroke-opacity:1" d="M 272,816 L 292,822 L 263,805" id="path3584" sodipodi:nodetypes="ccc"/>
    <path style="fill:#b1b1ff;fill-opacity:1;fill-rule:evenodd;stroke:#000000;stroke-width:1px;stroke-linecap:butt;stroke-linejoin:miter;stroke-opacity:1" d="M 232,800 L 263,805 L 272,816 L 232,800 z" id="path3582"/>
    <path style="fill:none;fill-rule:evenodd;stroke:#000000;stroke-width:1px;stroke-linecap:butt;stroke-linejoin:miter;stroke-opacity:1" d="M 292,822 L 321,844 L 310,842 L 292,822 z" id="path3586"/>
    <path style="fill:#d0d0df;fill-opacity:1;fill-rule:evenodd;stroke:#000000;stroke-width:1px;stroke-linecap:butt;stroke-linejoin:miter;stroke-opacity:1" d="M 80,912 L 77,957 L 97,935" id="path3666" sodipodi:nodetypes="ccc"/>
    <path style="fill:none;fill-rule:evenodd;stroke:#000000;stroke-width:1px;stroke-linecap:butt;stroke-linejoin:miter;stroke-opacity:1" d="M 310,842 L 340,873 L 321,844" id="path3590"/>
    <path style="fill:none;fill-rule:evenodd;stroke:#000000;stroke-width:1px;stroke-linecap:butt;stroke-linejoin:miter;stroke-opacity:1" d="M 340,873 L 358,912 L 348,910 L 340,873 z" id="path3592" sodipodi:nodetypes="cccc"/>
    <path style="fill:none;fill-rule:evenodd;stroke:#000000;stroke-width:1px;stroke-linecap:butt;stroke-linejoin:miter;stroke-opacity:1" d="M 340,873 L 321,874 L 348,910" id="path3594"/>
    <path style="fill:#a0a0ff;fill-opacity:1;fill-rule:evenodd;stroke:#000000;stroke-width:1px;stroke-linecap:butt;stroke-linejoin:miter;stroke-opacity:1" d="M 356,950 L 353,989 L 361,950" id="path3602" sodipodi:nodetypes="ccc"/>
    <path style="fill:#a3a3ff;fill-opacity:1;fill-rule:evenodd;stroke:#000000;stroke-width:1px;stroke-linecap:butt;stroke-linejoin:miter;stroke-opacity:1" d="M 358,912 L 361,950 L 356,950 L 358,912 z" id="path3596" sodipodi:nodetypes="cccc"/>
    <path style="fill:#a5a5ff;fill-opacity:1;fill-rule:evenodd;stroke:#000000;stroke-width:1px;stroke-linecap:butt;stroke-linejoin:miter;stroke-opacity:1" d="M 348,910 L 356,950 L 342,950 L 348,910 z" id="path3600" sodipodi:nodetypes="cccc"/>
    <path style="fill:#9e9eff;fill-opacity:1;fill-rule:evenodd;stroke:#000000;stroke-width:1px;stroke-linecap:butt;stroke-linejoin:miter;stroke-opacity:1" d="M 342,950 L 343,991 L 320,987 L 342,950 z" id="path3606" sodipodi:nodetypes="cccc"/>
    <path style="fill:none;fill-rule:evenodd;stroke:#000000;stroke-width:1px;stroke-linecap:butt;stroke-linejoin:miter;stroke-opacity:1" d="M 356,950 L 343,991" id="path3608"/>
    <path style="fill:#8e8ecd;fill-opacity:1;fill-rule:evenodd;stroke:#000000;stroke-width:1px;stroke-linecap:butt;stroke-linejoin:miter;stroke-opacity:1" d="M 283,1015 L 271,1051 L 312,1024" id="path3656"/>
    <path style="fill:#9797e9;fill-opacity:1;fill-rule:evenodd;stroke:#000000;stroke-width:1px;stroke-linecap:butt;stroke-linejoin:miter;stroke-opacity:1" d="M 283,1015 L 288,972 L 320,987" id="path3684"/>
    <path style="fill:#9494de;fill-opacity:1;fill-rule:evenodd;stroke:#000000;stroke-width:1px;stroke-linecap:butt;stroke-linejoin:miter;stroke-opacity:1" d="M 320,987 L 312,1024 L 283,1015 L 320,987 z" id="path3610"/>
    <path style="fill:#7a7a8a;fill-opacity:1;fill-rule:evenodd;stroke:#000000;stroke-width:1px;stroke-linecap:butt;stroke-linejoin:miter;stroke-opacity:1" d="M 258,1072 L 245,1083 L 275,1070" id="path3622"/>
    <path style="fill:#8383a5;fill-opacity:1;fill-rule:evenodd;stroke:#000000;stroke-width:1px;stroke-linecap:butt;stroke-linejoin:miter;stroke-opacity:1" d="M 297,1053 L 271,1051 L 257,1072" id="path3654"/>
    <path style="fill:#7a7a8a;fill-opacity:1;fill-rule:evenodd;stroke:#000000;stroke-width:1px;stroke-linecap:butt;stroke-linejoin:miter;stroke-opacity:1" d="M 275,1070 L 258,1072 L 297,1053" id="path3620" sodipodi:nodetypes="ccc"/>
    <path style="fill:#7a7a8a;fill-opacity:1;fill-rule:evenodd;stroke:#000000;stroke-width:1px;stroke-linecap:butt;stroke-linejoin:miter;stroke-opacity:1" d="M 173,1079 L 214,1084 L 181,1070 L 173,1079 z" id="path3626"/>
    <path style="fill:#878796;fill-opacity:1;fill-rule:evenodd;stroke:#000000;stroke-width:1px;stroke-linecap:butt;stroke-linejoin:miter;stroke-opacity:1" d="M 173,1079 L 135,1061 L 140,1057 L 173,1079 z" id="path3628"/>
    <path style="fill:#adadbc;fill-opacity:1;fill-rule:evenodd;stroke:#000000;stroke-width:1px;stroke-linecap:butt;stroke-linejoin:miter;stroke-opacity:1" d="M 85,1000 L 105,1035 L 112,1026 L 85,1000 z" id="path3630"/>
    <path style="fill:#9999a9;fill-opacity:1;fill-rule:evenodd;stroke:#000000;stroke-width:1px;stroke-linecap:butt;stroke-linejoin:miter;stroke-opacity:1" d="M 112,1026 L 140,1057 L 151,1045 L 112,1026 z" id="path3634"/>
    <path style="fill:#a2a2b1;fill-opacity:1;fill-rule:evenodd;stroke:#000000;stroke-width:1px;stroke-linecap:butt;stroke-linejoin:miter;stroke-opacity:1" d="M 151,1045 L 131,1007 L 167,1023 L 151,1045 z" id="path3636"/>
    <path style="fill:#bfbfce;fill-opacity:1;fill-rule:evenodd;stroke:#000000;stroke-width:1px;stroke-linecap:butt;stroke-linejoin:miter;stroke-opacity:1" d="M 101,981 L 131,1007 L 125,961 L 101,981 z" id="path3638"/>
    <path style="fill:#9e9eae;fill-opacity:1;fill-rule:evenodd;stroke:#000000;stroke-width:1px;stroke-linecap:butt;stroke-linejoin:miter;stroke-opacity:1" d="M 162,986 L 167,1023 L 203,1013 L 162,986 z" id="path3640"/>
    <path style="fill:#7a7a8a;fill-opacity:1;fill-rule:evenodd;stroke:#000000;stroke-width:1px;stroke-linecap:butt;stroke-linejoin:miter;stroke-opacity:1" d="M 194,1049 L 227,1067 L 181,1070" id="path3650" sodipodi:nodetypes="ccc"/>
    <path style="fill:#878797;fill-opacity:1;fill-rule:evenodd;stroke:#000000;stroke-width:1px;stroke-linecap:butt;stroke-linejoin:miter;stroke-opacity:1" d="M 151,1045 L 194,1049 L 181,1070 L 151,1045 z" id="path3642"/>
    <path style="fill:#86869f;fill-opacity:1;fill-rule:evenodd;stroke:#000000;stroke-width:1px;stroke-linecap:butt;stroke-linejoin:miter;stroke-opacity:1" d="M 194,1049 L 203,1013 L 240,1037 L 194,1049 z" id="path3644"/>
    <path style="fill:none;fill-rule:evenodd;stroke:#000000;stroke-width:1px;stroke-linecap:butt;stroke-linejoin:miter;stroke-opacity:1" d="M 167,1023 L 194,1049" id="path3646"/>
    <path style="fill:#7f7f9b;fill-opacity:1;fill-rule:evenodd;stroke:#000000;stroke-width:1px;stroke-linecap:butt;stroke-linejoin:miter;stroke-opacity:1" d="M 240,1037 L 271,1051 L 227,1067 L 240,1037 z" id="path3648"/>
    <path style="fill:#7a7a8a;fill-opacity:1;fill-rule:evenodd;stroke:#000000;stroke-width:1px;stroke-linecap:butt;stroke-linejoin:miter;stroke-opacity:1" d="M 297,1053 L 275,1070 L 306,1053" id="path3618" sodipodi:nodetypes="ccc"/>
    <path style="fill:#8989bb;fill-opacity:1;fill-rule:evenodd;stroke:#000000;stroke-width:1px;stroke-linecap:butt;stroke-linejoin:miter;stroke-opacity:1" d="M 297,1053 L 306,1053 L 332,1024" id="path3616" sodipodi:nodetypes="ccc"/>
    <path style="fill:#8e8ecc;fill-opacity:1;fill-rule:evenodd;stroke:#000000;stroke-width:1px;stroke-linecap:butt;stroke-linejoin:miter;stroke-opacity:1" d="M 312,1024 L 297,1053 L 332,1024" id="path3614"/>
    <path style="fill:#9494e0;fill-opacity:1;fill-rule:evenodd;stroke:#000000;stroke-width:1px;stroke-linecap:butt;stroke-linejoin:miter;stroke-opacity:1" d="M 343,991 L 312,1024 L 332,1024" id="path3612" sodipodi:nodetypes="ccc"/>
    <path style="fill:#9898eb;fill-opacity:1;fill-rule:evenodd;stroke:#000000;stroke-width:1px;stroke-linecap:butt;stroke-linejoin:miter;stroke-opacity:1" d="M 353,989 L 343,991 L 332,1024 L 353,989 z" id="path3604"/>
    <path style="fill:#8c8cc4;fill-opacity:1;fill-rule:evenodd;stroke:#000000;stroke-width:1px;stroke-linecap:butt;stroke-linejoin:miter;stroke-opacity:1" d="M 246,994 L 240,1037 L 283,1015 L 246,994 z" id="path3658"/>
    <path style="fill:#9d9dce;fill-opacity:1;fill-rule:evenodd;stroke:#000000;stroke-width:1px;stroke-linecap:butt;stroke-linejoin:miter;stroke-opacity:1" d="M 203,1013 L 246,994 L 205,967 L 203,1013 z" id="path3660"/>
    <path style="fill:#b7b7d8;fill-opacity:1;fill-rule:evenodd;stroke:#000000;stroke-width:1px;stroke-linecap:butt;stroke-linejoin:miter;stroke-opacity:1" d="M 162,986 L 205,967 L 164,940 L 162,986 z" id="path3662"/>
    <path style="fill:#e2e2f3;fill-opacity:1;fill-rule:evenodd;stroke:#000000;stroke-width:1px;stroke-linecap:butt;stroke-linejoin:miter;stroke-opacity:1" d="M 128,913 L 125,961 L 164,940 L 128,913 z" id="path3664"/>
    <path style="fill:none;fill-rule:evenodd;stroke:#000000;stroke-width:1px;stroke-linecap:butt;stroke-linejoin:miter;stroke-opacity:1" d="M 140,867 L 128,913 L 170,892 L 140,867 z" id="path3672"/>
    <path style="fill:#c7c7ff;fill-opacity:1;fill-rule:evenodd;stroke:#000000;stroke-width:1px;stroke-linecap:butt;stroke-linejoin:miter;stroke-opacity:1" d="M 170,892 L 212,871 L 209,918 L 170,892 z" id="path3674"/>
    <path style="fill:#b0b0f0;fill-opacity:1;fill-rule:evenodd;stroke:#000000;stroke-width:1px;stroke-linecap:butt;stroke-linejoin:miter;stroke-opacity:1" d="M 209,918 L 205,967 L 251,946 L 209,918 z" id="path3676"/>
    <path style="fill:#acacff;fill-opacity:1;fill-rule:evenodd;stroke:#000000;stroke-width:1px;stroke-linecap:butt;stroke-linejoin:miter;stroke-opacity:1" d="M 253,896 L 251,946 L 292,924 L 253,896 z" id="path3678"/>
    <path style="fill:#9999e3;fill-opacity:1;fill-rule:evenodd;stroke:#000000;stroke-width:1px;stroke-linecap:butt;stroke-linejoin:miter;stroke-opacity:1" d="M 251,946 L 246,994 L 288,972 L 251,946 z" id="path3680"/>
    <path style="fill:#9d9dff;fill-opacity:1;fill-rule:evenodd;stroke:#000000;stroke-width:1px;stroke-linecap:butt;stroke-linejoin:miter;stroke-opacity:1" d="M 292,924 L 288,972 L 318,949 L 292,924 z" id="path3682"/>
    <path style="fill:#a3a3ff;fill-opacity:1;fill-rule:evenodd;stroke:#000000;stroke-width:1px;stroke-linecap:butt;stroke-linejoin:miter;stroke-opacity:1" d="M 292,879 L 292,924 L 325,912" id="path3690"/>
    <path style="fill:none;fill-rule:evenodd;stroke:#000000;stroke-width:1px;stroke-linecap:butt;stroke-linejoin:miter;stroke-opacity:1" d="M 325,912 L 292,879 L 321,874 L 325,912 z" id="path3688"/>
    <path style="fill:none;fill-rule:evenodd;stroke:#000000;stroke-width:1px;stroke-linecap:butt;stroke-linejoin:miter;stroke-opacity:1" d="M 325,912 L 348,910" id="path3694"/>
    <path style="fill:#a7a7ff;fill-opacity:1;fill-rule:evenodd;stroke:#000000;stroke-width:1px;stroke-linecap:butt;stroke-linejoin:miter;stroke-opacity:1" d="M 321,874 L 310,842 L 286,842 L 321,874 z" id="path3696"/>
    <path style="fill:#b8b8ff;fill-opacity:1;fill-rule:evenodd;stroke:#000000;stroke-width:1px;stroke-linecap:butt;stroke-linejoin:miter;stroke-opacity:1" d="M 252,852 L 286,842 L 292,879 L 252,852 z" id="path3698"/>
    <path style="fill:#b8b8ff;fill-opacity:1;fill-rule:evenodd;stroke:#000000;stroke-width:1px;stroke-linecap:butt;stroke-linejoin:miter;stroke-opacity:1" d="M 272,816 L 286,842 L 243,821 L 272,816 z" id="path3700" sodipodi:nodetypes="cccc"/>
    <path style="fill:none;fill-rule:evenodd;stroke:#000000;stroke-width:1px;stroke-linecap:butt;stroke-linejoin:miter;stroke-opacity:1" d="M 272,816 L 310,842" id="path3702"/>
    <path style="fill:#c6c6ff;fill-opacity:1;fill-rule:evenodd;stroke:#000000;stroke-width:1px;stroke-linecap:butt;stroke-linejoin:miter;stroke-opacity:1" d="M 209,834 L 198,811 L 243,821" id="path3724" sodipodi:nodetypes="ccc"/>
    <path style="fill:#c2c2ff;fill-opacity:1;fill-rule:evenodd;stroke:#000000;stroke-width:1px;stroke-linecap:butt;stroke-linejoin:miter;stroke-opacity:1" d="M 243,821 L 252,852 L 209,834 L 243,821 z" id="path3704"/>
    <path style="fill:#bdbdff;fill-opacity:1;fill-rule:evenodd;stroke:#000000;stroke-width:1px;stroke-linecap:butt;stroke-linejoin:miter;stroke-opacity:1" d="M 212,871 L 252,852 L 253,896 L 212,871 z" id="path3706"/>
    <path style="fill:none;fill-rule:evenodd;stroke:#000000;stroke-width:1px;stroke-linecap:butt;stroke-linejoin:miter;stroke-opacity:1" d="M 292,879 L 253,896 L 209,918" id="path3708" sodipodi:nodetypes="cc"/>
    <path style="fill:#d3d3ef;fill-opacity:1;fill-rule:evenodd;stroke:#000000;stroke-width:1px;stroke-linecap:butt;stroke-linejoin:miter;stroke-opacity:1" d="M 140,867 L 124,846 L 164,832 L 140,867 z" id="path3712"/>
    <path style="fill:#ccccff;fill-opacity:1;fill-rule:evenodd;stroke:#000000;stroke-width:1px;stroke-linecap:butt;stroke-linejoin:miter;stroke-opacity:1" d="M 178,856 L 212,871 L 209,834" id="path3718"/>
    <path style="fill:#d0d0ff;fill-opacity:1;fill-rule:evenodd;stroke:#000000;stroke-width:1px;stroke-linecap:butt;stroke-linejoin:miter;stroke-opacity:1" d="M 164,832 L 178,856 L 209,834 L 164,832 z" id="path3714"/>
    <path style="fill:#cecefb;fill-opacity:1;fill-rule:evenodd;stroke:#000000;stroke-width:1px;stroke-linecap:butt;stroke-linejoin:miter;stroke-opacity:1" d="M 154,818 L 164,832 L 198,811 L 154,818 z" id="path3720"/>
    <path style="fill:none;fill-rule:evenodd;stroke:#000000;stroke-width:1px;stroke-linecap:butt;stroke-linejoin:miter;stroke-opacity:1" d="M 154,818 L 124,846" id="path3722"/>
    <path style="fill:none;fill-rule:evenodd;stroke:#000000;stroke-width:1px;stroke-linecap:butt;stroke-linejoin:miter;stroke-opacity:1" d="M 232,800 L 243,821" id="path3726"/>
    <path style="fill:none;fill-opacity:1;fill-rule:evenodd;stroke:#000000;stroke-width:1px;stroke-linecap:butt;stroke-linejoin:miter;stroke-opacity:1" d="M 108,889 L 140,867" id="path3732"/>
    <path style="fill:none;fill-rule:evenodd;stroke:#000000;stroke-width:1px;stroke-linecap:butt;stroke-linejoin:miter;stroke-opacity:1" d="M 140,1057 L 181,1070" id="path3734" sodipodi:nodetypes="cc"/>
  </g>
  <path style="fill:#b0b0ee;fill-opacity:1;fill-rule:evenodd;stroke:#000000;stroke-width:2;stroke-linecap:butt;stroke-linejoin:miter;stroke-miterlimit:4;stroke-dasharray:none;stroke-opacity:1" d="M 175,75 L 155,315 L 375,210 L 175,75 z" id="path3738"/>
  <path style="fill:#9898ed;fill-opacity:1;fill-rule:evenodd;stroke:#000000;stroke-width:2;stroke-linecap:butt;stroke-linejoin:miter;stroke-miterlimit:4;stroke-dasharray:none;stroke-opacity:1" d="M 375,210 L 320,380 L 420,210" id="path3572"/>
  <path style="fill:#878796;fill-opacity:1;fill-rule:evenodd;stroke:#000000;stroke-width:2;stroke-linecap:butt;stroke-linejoin:miter;stroke-miterlimit:4;stroke-dasharray:none;stroke-opacity:1" d="M 115,355 L 320,380 L 155,315" id="path3570"/>
  <path style="fill:#adadbd;fill-opacity:1;fill-rule:evenodd;stroke:#000000;stroke-width:2;stroke-linecap:butt;stroke-linejoin:miter;stroke-miterlimit:4;stroke-dasharray:none;stroke-opacity:1" d="M 20,185 L 115,355 L 155,315 L 20,185 z" id="path3562"/>
  <path style="fill:#c5c5ff;fill-opacity:1;fill-rule:evenodd;stroke:#000000;stroke-width:2;stroke-linecap:butt;stroke-linejoin:miter;stroke-miterlimit:4;stroke-dasharray:none;stroke-opacity:1" d="M 175,75 L 345,30 L 140,20" id="path3740"/>
  <path style="fill:#a8a8ff;fill-opacity:1;fill-rule:evenodd;stroke:#000000;stroke-width:2;stroke-linecap:butt;stroke-linejoin:miter;stroke-miterlimit:4;stroke-dasharray:none;stroke-opacity:1" d="M 345,30 L 375,210 L 420,210 L 345,30 z" id="path3568"/>
  <path style="fill:#d3d3e3;fill-opacity:1;fill-rule:evenodd;stroke:#000000;stroke-width:2;stroke-linecap:butt;stroke-linejoin:miter;stroke-miterlimit:4;stroke-dasharray:none;stroke-opacity:1" d="M 20,185 L 140,20 L 175,75 L 20,185 z" id="path3564"/>
</svg>